<svg width="64" height="64" viewBox="0 0 64 64" fill="none" xmlns="http://www.w3.org/2000/svg">
<circle cx="32" cy="32" r="31.5" stroke="black"/>
<path d="M39.25 34.75H26.4688L28.7812 32.2812C29.0625 31.9688 29.0625 31.5 28.75 31.2188C28.4375 30.9375 27.9688 30.9375 27.6875 31.25L24.1875 35C23.9062 35.2812 23.9062 35.75 24.1875 36.0312L27.6875 39.7812C27.8438 39.9375 28.0312 40 28.25 40C28.4062 40 28.5938 39.9375 28.75 39.8125C29.0625 39.5312 29.0625 39.0625 28.7812 38.75L26.4688 36.25H39.25C39.6562 36.25 40 35.9375 40 35.5C40 35.0938 39.6562 34.75 39.25 34.75ZM24.75 29.25H37.5L35.1875 31.75C34.9062 32.0625 34.9062 32.5312 35.2188 32.8125C35.5312 33.0938 36 33.0938 36.2812 32.7812L39.7812 29.0312C40.0625 28.75 40.0625 28.2812 39.7812 28L36.2812 24.25C36.125 24.0938 35.9375 24 35.75 24C35.5625 24 35.375 24.0938 35.2188 24.2188C34.9062 24.5 34.9062 24.9688 35.1875 25.2812L37.5 27.75H24.75C24.3125 27.75 24 28.0938 24 28.5C24 28.9375 24.3125 29.25 24.75 29.25Z" fill="#25130E"/>
</svg>