<svg width="64" height="64" viewBox="0 0 64 64" fill="none" xmlns="http://www.w3.org/2000/svg">
<circle cx="32" cy="32" r="31.5" stroke="black"/>
<path d="M41.4688 30.1875L39.8125 28.5312C39.4688 28.1875 39.0312 28 38.5625 28H36.5C35.9375 28 35.5 28.4688 35.5 29V34.5H30V34.5312C29.5625 34.2188 29.0625 34 28.5 34C27.6562 34 26.9375 34.4062 26.5 35.0312C26.0312 34.4062 25.3125 34 24.5 34C23.0938 34 22 35.125 22 36.5C22 37.9062 23.0938 39 24.5 39C25.3125 39 26.0312 38.625 26.5 38C27.0625 38.7812 28.0625 39.2188 29.1562 38.9375C29.9375 38.7188 30.5938 38.125 30.8438 37.3438C31 36.875 31.0312 36.4375 30.9375 36.0312H36.0312C35.9375 36.4375 35.9688 36.875 36.125 37.3438C36.375 38.125 37.0625 38.75 37.875 38.9375C39.5 39.3438 41 38.0938 41 36.5312C41 36.3438 40.9688 36.1875 40.9375 36.0312L41 36C41.5312 36 42 35.5625 42 35V31.4375C42 30.9688 41.8125 30.5312 41.4688 30.1875ZM24.5 37.5C23.9375 37.5 23.5 37.0625 23.5 36.5C23.5 35.9688 23.9375 35.5 24.5 35.5C25.0312 35.5 25.5 35.9688 25.5 36.5C25.5 37 25.0312 37.5 24.5 37.5ZM28.5 37.5C27.9375 37.5 27.5 37.0625 27.5 36.5C27.5 35.9688 27.9375 35.5 28.5 35.5C29.0312 35.5 29.5 35.9688 29.5 36.5C29.5 37 29.0312 37.5 28.5 37.5ZM37 29.5H38.5625C38.625 29.5 38.6875 29.5312 38.75 29.5938L40.1875 31H37V29.5ZM38.5 37.5C37.9375 37.5 37.5 37.0625 37.5 36.5C37.5 35.9688 37.9375 35.5312 38.5 35.5312C39.0312 35.5312 39.5 36 39.5 36.5312C39.5 37.0938 39.0312 37.5 38.5 37.5ZM40.5 34.5H40V34.5312C39.5625 34.2188 39.0625 34 38.5 34C37.9062 34 37.4062 34.2188 37 34.5312V32.5H40.5V34.5ZM22.75 33.5C23.1562 33.5 23.5 33.1875 23.5 32.75V26.75C23.5 26.625 23.5938 26.5 23.75 26.5H32.75C32.875 26.5 33 26.625 33 26.75V32.75C33 33.1875 33.3125 33.5 33.75 33.5C34.1562 33.5 34.5 33.1875 34.5 32.75V26.75C34.5 25.8125 33.6875 25 32.75 25H23.75C22.7812 25 22 25.8125 22 26.75V32.75C22 33.1875 22.3125 33.5 22.75 33.5ZM27.5 28V32C27.5 32.4375 27.8125 32.75 28.25 32.75C28.6562 32.75 29 32.4375 29 32V28C29 27.5938 28.6562 27.25 28.25 27.25C27.8125 27.25 27.5 27.5938 27.5 28ZM30.25 28V32C30.25 32.4375 30.5625 32.75 31 32.75C31.4062 32.75 31.75 32.4375 31.75 32V28C31.75 27.5938 31.4062 27.25 31 27.25C30.5625 27.25 30.25 27.5938 30.25 28ZM24.75 28V32C24.75 32.4375 25.0625 32.75 25.5 32.75C25.9062 32.75 26.25 32.4375 26.25 32V28C26.25 27.5938 25.9062 27.25 25.5 27.25C25.0625 27.25 24.75 27.5938 24.75 28Z" fill="#25130E"/>
</svg>