<svg width="64" height="64" viewBox="0 0 64 64" fill="none" xmlns="http://www.w3.org/2000/svg">
<circle cx="32" cy="32" r="31.5" stroke="black"/>
<path d="M41.8438 29.5312L39 24.5312C38.8125 24.2188 38.4688 24 38.125 24H25.8438C25.5 24 25.1562 24.2188 24.9688 24.5312L22.125 29.5312C21.75 30.1875 22.2188 31 22.9688 31H23.9688V38.5C24 39.3438 24.6562 40 25.4688 40H32.4688C33.2812 40 33.9375 39.3438 33.9375 38.5312L33.9688 31H38.4688V39.25C38.4688 39.6875 38.7812 40 39.2188 40C39.625 40 39.9688 39.6562 39.9688 39.25V31H40.9688C41.75 31 42.2188 30.1875 41.8438 29.5312ZM32.4688 38.5H25.4688V35.5312H32.4375V38.5H32.4688ZM32.4688 34.0312H25.4688V31H32.4375V34.0312H32.4688ZM23.8438 29.5L26.125 25.5H37.8438L40.125 29.5H23.8438Z" fill="#25130E"/>
</svg>